<svg xmlns="http://www.w3.org/2000/svg" width="16" height="15.999" viewBox="31 332 16 15.999"><path d="M45.575 333.782v1.935c0 .874-.726 1.579-1.62 1.579h-1.02c-.895 0-1.63-.705-1.63-1.58v-1.941h-4.608v1.942a1.607 1.607 0 0 1-1.63 1.579h-1.023c-.893 0-1.62-.705-1.62-1.58v-1.934A1.456 1.456 0 0 0 31 335.214v11.343c0 .793.656 1.442 1.467 1.442h13.066A1.46 1.46 0 0 0 47 346.557v-11.343a1.455 1.455 0 0 0-1.425-1.432Zm-.474 12.069c0 .342-.284.62-.634.62H33.505a.628.628 0 0 1-.635-.62v-5.859a.628.628 0 0 1 .635-.62h10.962c.35 0 .634.277.634.62v5.859Zm-11.06-9.593h1.011a.55.55 0 0 0 .556-.542v-3.173a.55.55 0 0 0-.556-.543h-1.011a.548.548 0 0 0-.555.543v3.173c0 .3.248.542.555.542Zm8.88 0h1.01a.55.55 0 0 0 .557-.542v-3.173a.55.55 0 0 0-.557-.543h-1.01a.557.557 0 0 0-.437.207.534.534 0 0 0-.118.336v3.173a.548.548 0 0 0 .555.542Z" fill="rgba(206, 208, 212, 1)" fill-rule="evenodd" data-name="Forma 1 copy 6"/></svg>