<svg xmlns="http://www.w3.org/2000/svg" width="26.995" height="19.985" viewBox="95 354 26.995 19.985"><path d="M110.196 373.985h-9.52c-3.273-.319-5.68-2.991-5.676-6.22a5.941 5.941 0 0 1 2.444-4.786 4.312 4.312 0 0 1-.09-.876 4.318 4.318 0 0 1 1.294-3.043 4.373 4.373 0 0 1 3.056-1.233 4.265 4.265 0 0 1 .759.077 7.797 7.797 0 0 1 4.192-3.463 7.76 7.76 0 0 1 5.978.343 7.833 7.833 0 0 1 4.322 5.714 6.885 6.885 0 0 1 5.04 6.63 6.92 6.92 0 0 1-.117 1.26 6.866 6.866 0 0 1-6.16 5.593l-5.522.004Zm-8.542-14.62a2.728 2.728 0 0 0-1.924.789 2.783 2.783 0 0 0-.833 1.961 2.612 2.612 0 0 0 0 .01c0 .313.056.626.165.922l.225.607-.561.323a4.396 4.396 0 0 0-2.183 3.79 4.859 4.859 0 0 0 0 .008 4.666 4.666 0 0 0 4.21 4.675l14.903-.003a5.31 5.31 0 0 0 4.704-4.339 5.385 5.385 0 0 0 .091-.983 5.33 5.33 0 0 0-4.327-5.241l-.564-.106-.06-.568a6.313 6.313 0 0 0-3.54-5.043 6.227 6.227 0 0 0-4.795-.274 6.278 6.278 0 0 0-3.611 3.244l-.303.632-.66-.24a2.719 2.719 0 0 0-.904-.164h-.033Zm10.807 7.051-3.51 4.836a.56.56 0 0 1-.908 0l-3.51-4.836a.56.56 0 0 1 .457-.89h1.803v-5.494h3.406v5.494h1.805a.543.543 0 0 1 .008 0 .555.555 0 0 1 .326.107.56.56 0 0 1 .213.317.56.56 0 0 1-.073.442.568.568 0 0 1-.017.024Z" fill="#0b80cf" fill-rule="evenodd" data-name="Shape 31"/></svg>