<svg xmlns="http://www.w3.org/2000/svg" width="22.999" height="20.982" viewBox="25 353 22.999 20.982"><path d="M47.964 359.517a2.512 2.512 0 0 0-.005-.033h.001l-.005-.028a.678.678 0 0 0 0-.003l-.001-.019a7.855 7.855 0 0 0-.89-2.959 6.936 6.936 0 0 0-1.193-1.609A6.28 6.28 0 0 0 41.402 353a4.382 4.382 0 0 0-.005 0 6.55 6.55 0 0 0-4.95 2.276A6.304 6.304 0 0 0 31.61 353a6.245 6.245 0 0 0-.009 0 6.472 6.472 0 0 0-.006 0 6.277 6.277 0 0 0-4.467 1.865 7.196 7.196 0 0 0-1.82 3.17 8.192 8.192 0 0 0-.261 1.397.067.067 0 0 0-.003.016.036.036 0 0 0 0 .002.188.188 0 0 1 0 .006l-.005.028h.002c-.019.114-.04.307-.04.605 0 .435.05 1.058.238 1.84a10.181 10.181 0 0 0 3.202 5.224l7.493 6.64a.76.76 0 0 0 .994.006.745.745 0 0 0 .004-.002l7.621-6.64.005-.004c1.607-1.422 2.72-3.23 3.202-5.225a9.22 9.22 0 0 0 .135-.653c.068-.408.096-.757.103-1.04a5.964 5.964 0 0 0 .002-.148c0-.27-.019-.454-.035-.57Zm-1.653 2.078c-.411 1.696-1.358 3.244-2.754 4.48l.005-.003-7.124 6.204-6.997-6.2a8.899 8.899 0 0 1-2.406-3.386 8.24 8.24 0 0 1-.347-1.095 6.43 6.43 0 0 1-.2-1.506c0-.249.022-.393.027-.423l.006-.051c.143-1.534.768-2.83 1.672-3.735a4.76 4.76 0 0 1 3.407-1.425 4.848 4.848 0 0 1 4.197 2.428c.132.222.375.36.64.36a.757.757 0 0 0 .003 0 .747.747 0 0 0 .638-.354 5.067 5.067 0 0 1 4.32-2.434 4.76 4.76 0 0 1 3.407 1.427 5.624 5.624 0 0 1 1.261 1.961 6.589 6.589 0 0 1 .41 1.772l.007.05c.005.028.027.17.027.415a4.037 4.037 0 0 1 0 .007c0 .329-.038.838-.2 1.507Z" fill="rgba(206, 208, 212, 1)" fill-rule="evenodd" data-name="Shape 9 copy 3"/></svg>