<svg xmlns="http://www.w3.org/2000/svg" width="18.001" height="14.001" viewBox="28 249 18.001 14.001"><path d="m28.351 256.44 6.778-6.599c.217-.211.5-.394.852-.547a4.308 4.308 0 0 1 .115-.049c.404-.163.773-.245 1.108-.245h2.123a2.414 2.414 0 0 0-.493.054 3.491 3.491 0 0 0-.476.138 4.447 4.447 0 0 0-.14.053 3.8 3.8 0 0 0-.452.217c-.2.114-.371.24-.514.38l-6.777 6.598a1.24 1.24 0 0 0-.268.403 1.164 1.164 0 0 0-.082.438 1.12 1.12 0 0 0 .333.815 1.37 1.37 0 0 0 .017.017l4.454 4.342a4.268 4.268 0 0 1-.171.164c-.12.108-.229.192-.328.25a1.195 1.195 0 0 1-.003.002.882.882 0 0 1-.24.095 1.364 1.364 0 0 1-.32.035c-.328 0-.616-.114-.862-.343l-4.654-4.545a1.121 1.121 0 0 1-.35-.81 1.34 1.34 0 0 1-.001-.022 1.17 1.17 0 0 1 .35-.84Zm3.29.84c0-.32.116-.6.35-.84l6.778-6.599c.24-.234.562-.432.965-.596a3.826 3.826 0 0 1 .476-.158c.168-.044.329-.07.482-.082a2.159 2.159 0 0 1 .152-.005h3.943a1.181 1.181 0 0 1 .851.35 1.514 1.514 0 0 1 .003.002 1.202 1.202 0 0 1 .27.383 1.115 1.115 0 0 1 .09.448v3.844a2.26 2.26 0 0 1-.055.482c-.042.19-.107.39-.196.6a3.6 3.6 0 0 1-.223.439c-.093.154-.194.29-.303.408a1.978 1.978 0 0 1-.086.086l-6.777 6.616a1.17 1.17 0 0 1-.85.343 1.48 1.48 0 0 1-.003 0c-.329 0-.617-.114-.863-.343l-4.654-4.545a1.116 1.116 0 0 1-.35-.802 1.348 1.348 0 0 1 0-.03Zm10.469-4.486c.236.231.522.346.858.346.334 0 .62-.115.857-.346a1.148 1.148 0 0 0 .295-.459 1.176 1.176 0 0 0 .06-.378 1.12 1.12 0 0 0-.333-.814 1.383 1.383 0 0 0-.022-.021 1.183 1.183 0 0 0-.854-.347 1.479 1.479 0 0 0-.003 0 1.182 1.182 0 0 0-.858.347 1.157 1.157 0 0 0-.293.448 1.163 1.163 0 0 0-.063.387 1.123 1.123 0 0 0 .342.823 1.388 1.388 0 0 0 .014.014Z" fill="rgba(206, 208, 212, 1)" fill-rule="evenodd" data-name="Shape 847 copy"/></svg>