<svg xmlns="http://www.w3.org/2000/svg" width="21.002" height="22.995" viewBox="171.168 353.743 21.002 22.995"><path d="M188.117 368.445c-1.083 0-2.1.431-2.866 1.214-.122.125-.237.26-.346.405l-5.815-3.61a4.21 4.21 0 0 0 0-2.458l5.816-3.583a4 4 0 0 0 3.21 1.623c2.237 0 4.054-1.86 4.054-4.147 0-2.286-1.817-4.146-4.053-4.146-2.234 0-4.053 1.86-4.053 4.146 0 .397.056.792.17 1.177l-5.832 3.593a4.01 4.01 0 0 0-3.182-1.582c-2.234 0-4.052 1.86-4.052 4.147s1.818 4.147 4.052 4.147c1.25 0 2.414-.585 3.181-1.581l5.832 3.62a4.186 4.186 0 0 0-.169 1.181c0 1.108.422 2.15 1.187 2.932a3.978 3.978 0 0 0 2.866 1.215c1.082 0 2.1-.43 2.865-1.215a4.17 4.17 0 0 0 1.188-2.932 4.174 4.174 0 0 0-1.188-2.932 3.984 3.984 0 0 0-2.865-1.214Z" fill="rgba(206, 208, 212, 1)" fill-rule="evenodd" data-name="Shape 32"/></svg>