<svg xmlns="http://www.w3.org/2000/svg" width="12.977" height="13.001" viewBox="9.999 35.998 12.977 13.001"><path d="m22.41 40.43-3.574-.356a.622.622 0 0 1-.51-.4l-1.28-3.27a.601.601 0 0 0-1.137 0l-1.27 3.27a.608.608 0 0 1-.511.4l-3.575.356c-.532.054-.747.756-.349 1.135l2.695 2.493a.67.67 0 0 1 .194.638l-.808 3.498c-.123.55.44 1.004.91.712l2.98-1.846c.194-.12.43-.12.625 0l2.98 1.846c.471.292 1.033-.15.91-.712l-.799-3.498a.67.67 0 0 1 .195-.638l2.693-2.493c.39-.38.164-1.08-.368-1.135Z" fill="rgba(255, 255, 255, 1)" fill-rule="evenodd" data-name="Forma 1"/></svg>